<svg preserveAspectRatio="none" overflow="visible" style="display: block;" width="72.6667" height="67.5833" viewBox="0 0 72.6667 67.5833" fill="none" xmlns="http://www.w3.org/2000/svg">
<g id="Background+Shadow" filter="url(#filter0_d_0_132)">
<rect x="2" y="1" width="68.6667" height="63.5833" rx="31.7917" fill="white" shape-rendering="crispEdges"/>
<path id="Icon" d="M49.5833 40.1667L47 37.5833C48.2222 36.4444 49.1806 35.0972 49.875 33.5417C50.5694 31.9861 50.9167 30.3333 50.9167 28.5833C50.9167 26.8333 50.5694 25.1944 49.875 23.6667C49.1806 22.1389 48.2222 20.8056 47 19.6667L49.5833 17C51.1389 18.4722 52.375 20.2083 53.2917 22.2083C54.2083 24.2083 54.6667 26.3333 54.6667 28.5833C54.6667 30.8333 54.2083 32.9583 53.2917 34.9583C52.375 36.9583 51.1389 38.6944 49.5833 40.1667V40.1667M44.25 34.8333L41.5833 32.1667C42.0833 31.6944 42.4861 31.1597 42.7917 30.5625C43.0972 29.9653 43.25 29.3056 43.25 28.5833C43.25 27.8611 43.0972 27.2014 42.7917 26.6042C42.4861 26.0069 42.0833 25.4722 41.5833 25L44.25 22.3333C45.1389 23.1389 45.8333 24.0764 46.3333 25.1458C46.8333 26.2153 47.0833 27.3611 47.0833 28.5833C47.0833 29.8056 46.8333 30.9514 46.3333 32.0208C45.8333 33.0903 45.1389 34.0278 44.25 34.8333V34.8333M31.3333 35.25C29.5 35.25 27.9306 34.5972 26.625 33.2917C25.3194 31.9861 24.6667 30.4167 24.6667 28.5833C24.6667 26.75 25.3194 25.1806 26.625 23.875C27.9306 22.5694 29.5 21.9167 31.3333 21.9167C33.1667 21.9167 34.7361 22.5694 36.0417 23.875C37.3472 25.1806 38 26.75 38 28.5833C38 30.4167 37.3472 31.9861 36.0417 33.2917C34.7361 34.5972 33.1667 35.25 31.3333 35.25V35.25M18 48.5833V43.9167C18 43 18.2361 42.1389 18.7083 41.3333C19.1806 40.5278 19.8333 39.9167 20.6667 39.5C22.0833 38.7778 23.6806 38.1667 25.4583 37.6667C27.2361 37.1667 29.1944 36.9167 31.3333 36.9167C33.4722 36.9167 35.4306 37.1667 37.2083 37.6667C38.9861 38.1667 40.5833 38.7778 42 39.5C42.8333 39.9167 43.4861 40.5278 43.9583 41.3333C44.4306 42.1389 44.6667 43 44.6667 43.9167V48.5833H18V48.5833M21.3333 45.25H41.3333V43.9167C41.3333 43.6111 41.2569 43.3333 41.1042 43.0833C40.9514 42.8333 40.75 42.6389 40.5 42.5C39.5 42 38.2153 41.5 36.6458 41C35.0764 40.5 33.3056 40.25 31.3333 40.25C29.3611 40.25 27.5903 40.5 26.0208 41C24.4514 41.5 23.1667 42 22.1667 42.5C21.9167 42.6389 21.7153 42.8333 21.5625 43.0833C21.4097 43.3333 21.3333 43.6111 21.3333 43.9167V45.25V45.25M31.3333 31.9167C32.25 31.9167 33.0347 31.5903 33.6875 30.9375C34.3403 30.2847 34.6667 29.5 34.6667 28.5833C34.6667 27.6667 34.3403 26.8819 33.6875 26.2292C33.0347 25.5764 32.25 25.25 31.3333 25.25C30.4167 25.25 29.6319 25.5764 28.9792 26.2292C28.3264 26.8819 28 27.6667 28 28.5833C28 29.5 28.3264 30.2847 28.9792 30.9375C29.6319 31.5903 30.4167 31.9167 31.3333 31.9167V31.9167M31.3333 28.5833V28.5833V28.5833V28.5833V28.5833V28.5833V28.5833V28.5833V28.5833V28.5833M31.3333 45.25V45.25V45.25V45.25V45.25V45.25V45.25V45.25V45.25V45.25V45.25V45.25V45.25" fill="#00535B"/>
</g>
<defs>
<filter id="filter0_d_0_132" x="0" y="0" width="72.6667" height="67.5833" filterUnits="userSpaceOnUse" color-interpolation-filters="sRGB">
<feFlood flood-opacity="0" result="BackgroundImageFix"/>
<feColorMatrix in="SourceAlpha" type="matrix" values="0 0 0 0 0 0 0 0 0 0 0 0 0 0 0 0 0 0 127 0" result="hardAlpha"/>
<feOffset dy="1"/>
<feGaussianBlur stdDeviation="1"/>
<feComposite in2="hardAlpha" operator="out"/>
<feColorMatrix type="matrix" values="0 0 0 0 0 0 0 0 0 0 0 0 0 0 0 0 0 0 0.05 0"/>
<feBlend mode="normal" in2="BackgroundImageFix" result="effect1_dropShadow_0_132"/>
<feBlend mode="normal" in="SourceGraphic" in2="effect1_dropShadow_0_132" result="shape"/>
</filter>
</defs>
</svg>
