<svg preserveAspectRatio="none" overflow="visible" style="display: block;" width="26.6667" height="26.6667" viewBox="0 0 26.6667 26.6667" fill="none" xmlns="http://www.w3.org/2000/svg">
<g id="Container">
<path id="Icon" d="M18.6667 17.3333C17.5556 17.3333 16.6111 16.9444 15.8333 16.1667C15.0556 15.3889 14.6667 14.4444 14.6667 13.3333C14.6667 12.2222 15.0556 11.2778 15.8333 10.5C16.6111 9.72222 17.5556 9.33333 18.6667 9.33333C19.7778 9.33333 20.7222 9.72222 21.5 10.5C22.2778 11.2778 22.6667 12.2222 22.6667 13.3333C22.6667 14.4444 22.2778 15.3889 21.5 16.1667C20.7222 16.9444 19.7778 17.3333 18.6667 17.3333V17.3333M18.6667 14.6667C19.0444 14.6667 19.3611 14.5389 19.6167 14.2833C19.8722 14.0278 20 13.7111 20 13.3333C20 12.9556 19.8722 12.6389 19.6167 12.3833C19.3611 12.1278 19.0444 12 18.6667 12C18.2889 12 17.9722 12.1278 17.7167 12.3833C17.4611 12.6389 17.3333 12.9556 17.3333 13.3333C17.3333 13.7111 17.4611 14.0278 17.7167 14.2833C17.9722 14.5389 18.2889 14.6667 18.6667 14.6667V14.6667M10.6667 26.6667V22.8C10.6667 22.3333 10.7778 21.8944 11 21.4833C11.2222 21.0722 11.5333 20.7444 11.9333 20.5C12.6444 20.0778 13.3944 19.7278 14.1833 19.45C14.9722 19.1722 15.7778 18.9667 16.6 18.8333L18.6667 21.3333L20.7333 18.8333C21.5556 18.9667 22.3556 19.1722 23.1333 19.45C23.9111 19.7278 24.6556 20.0778 25.3667 20.5C25.7667 20.7444 26.0833 21.0722 26.3167 21.4833C26.55 21.8944 26.6667 22.3333 26.6667 22.8V26.6667H10.6667V26.6667M13.3 24H17.4L15.6 21.8C15.2 21.9111 14.8111 22.0556 14.4333 22.2333C14.0556 22.4111 13.6778 22.6 13.3 22.8V24V24M19.9333 24H24V22.8C23.6444 22.5778 23.2778 22.3833 22.9 22.2167C22.5222 22.05 22.1333 21.9111 21.7333 21.8L19.9333 24V24M17.4 24V24V24V24V24V24V24M19.9333 24V24V24V24V24V24V24M2.66667 24C1.93333 24 1.30556 23.7389 0.783333 23.2167C0.261111 22.6944 0 22.0667 0 21.3333V2.66667C0 1.93333 0.261111 1.30556 0.783333 0.783333C1.30556 0.261111 1.93333 0 2.66667 0H21.3333C22.0667 0 22.6944 0.261111 23.2167 0.783333C23.7389 1.30556 24 1.93333 24 2.66667V9.33333C23.6444 8.88889 23.2556 8.46667 22.8333 8.06667C22.4111 7.66667 21.9111 7.4 21.3333 7.26667V2.66667V2.66667V2.66667H2.66667V2.66667V2.66667V21.3333V21.3333V21.3333H8.2C8.13333 21.5778 8.08333 21.8222 8.05 22.0667C8.01667 22.3111 8 22.5556 8 22.8V24H2.66667V24M5.33333 8H14.6667C15.2444 7.55556 15.8778 7.22222 16.5667 7C17.2556 6.77778 17.9556 6.66667 18.6667 6.66667V5.33333H5.33333V8V8M5.33333 13.3333H12C12 12.8667 12.05 12.4111 12.15 11.9667C12.25 11.5222 12.3889 11.0889 12.5667 10.6667H5.33333V13.3333V13.3333M5.33333 18.6667H9.93333C10.1778 18.4667 10.4389 18.2889 10.7167 18.1333C10.9944 17.9778 11.2778 17.8333 11.5667 17.7V16H5.33333V18.6667V18.6667M2.66667 21.3333V21.3333V21.3333V21.3333V2.66667V2.66667V2.66667V2.66667V2.66667V2.66667V7.23333C2.66667 7.05556 2.66667 6.91667 2.66667 6.81667C2.66667 6.71667 2.66667 6.66667 2.66667 6.66667C2.66667 6.66667 2.66667 7.31667 2.66667 8.61667C2.66667 9.91667 2.66667 11.4889 2.66667 13.3333C2.66667 13.9556 2.66667 14.5778 2.66667 15.2C2.66667 15.8222 2.66667 16.4444 2.66667 17.0667C2.66667 17.2444 2.66667 17.4333 2.66667 17.6333C2.66667 17.8333 2.66667 18.0222 2.66667 18.2C2.66667 18.7111 2.66667 19.2333 2.66667 19.7667C2.66667 20.3 2.66667 20.8222 2.66667 21.3333V21.3333M18.6667 13.3333V13.3333V13.3333V13.3333V13.3333V13.3333V13.3333V13.3333V13.3333V13.3333" fill="#00535B"/>
</g>
</svg>
